<svg width="49" height="48" viewBox="0 0 49 48" fill="none" xmlns="http://www.w3.org/2000/svg">
<path d="M48.729 24C48.729 37.2548 37.9838 48 24.729 48C11.4742 48 0.729004 37.2548 0.729004 24C0.729004 10.7452 11.4742 0 24.729 0C37.9838 0 48.729 10.7452 48.729 24Z" fill="white"/>
<path d="M30.0368 33.0329C30.0368 25.2569 12.0656 27.6185 12.0656 17.4809C12.0656 12.2969 16.7312 9.18652 24.392 9.18652C33.7808 9.18652 36.6032 13.7945 37.064 16.7321C37.928 22.0313 31.1312 22.8377 29.6336 15.4649C29.1728 13.4489 27.9632 10.1657 24.2192 10.1657C21.6272 10.1657 19.9568 11.7785 19.9568 14.0825C19.9568 21.5705 37.928 19.7273 37.928 29.6921C37.928 34.9337 33.032 38.2745 24.8528 38.2745C15.0032 38.2745 11.5472 33.4361 11.0288 30.2681C10.2224 25.1993 16.7312 23.3561 18.344 30.9017C19.1504 34.6457 21.4544 37.2953 25.1408 37.2953C28.1936 37.2953 30.0368 35.6249 30.0368 33.0329Z" fill="#FFAA00"/>
</svg>
